<?xml version="1.0" standalone="no"?>
<!DOCTYPE svg PUBLIC "-//W3C//DTD SVG 20010904//EN"
 "http://www.w3.org/TR/2001/REC-SVG-20010904/DTD/svg10.dtd">
<svg version="1.0" xmlns="http://www.w3.org/2000/svg"
 width="670.000000pt" height="670.000000pt" viewBox="0 0 670.000000 670.000000"
 preserveAspectRatio="xMidYMid meet">
<metadata>
Created by potrace 1.14, written by Peter Selinger 2001-2017
</metadata>
<g transform="translate(0.000000,670.000000) scale(0.100000,-0.100000)"
fill="#000000" stroke="none">
<path d="M3159 6655 c-2 -1 -44 -6 -94 -9 -49 -3 -103 -8 -120 -11 -16 -2 -50
-7 -75 -10 -256 -35 -556 -118 -795 -220 -151 -65 -328 -154 -405 -203 -14 -9
-25 -14 -25 -11 0 2 -7 -2 -15 -9 -8 -7 -59 -42 -114 -78 -54 -36 -103 -69
-110 -74 -224 -178 -218 -173 -377 -330 -203 -201 -296 -314 -440 -535 -92
-140 -192 -319 -242 -435 -8 -19 -27 -62 -42 -95 -15 -33 -28 -67 -30 -75 -3
-8 -16 -46 -30 -85 -26 -67 -90 -282 -99 -328 -2 -12 -7 -29 -10 -37 -3 -8 -7
-28 -10 -45 -3 -16 -7 -40 -10 -51 -2 -12 -7 -39 -10 -60 -4 -22 -8 -46 -11
-54 -2 -8 -7 -42 -10 -75 -4 -33 -9 -71 -11 -85 -23 -155 -22 -641 1 -762 3
-12 8 -43 11 -68 15 -117 53 -312 74 -380 6 -19 13 -46 16 -60 10 -49 93 -288
134 -386 84 -200 246 -491 342 -615 15 -20 28 -41 28 -47 0 -6 3 -12 8 -14 4
-1 23 -23 42 -48 154 -198 372 -425 520 -540 25 -19 47 -37 50 -40 16 -17 234
-173 275 -196 11 -6 58 -34 103 -62 254 -153 584 -287 887 -360 117 -29 149
-35 229 -48 21 -3 48 -8 60 -10 11 -3 52 -7 91 -10 38 -3 72 -7 75 -9 11 -7
225 -19 330 -19 101 0 267 10 320 18 14 2 59 7 100 11 41 3 93 10 115 15 22 5
56 11 75 14 90 15 190 38 285 67 39 11 77 22 85 24 8 1 22 5 30 8 8 4 58 22
110 40 52 19 124 47 160 62 92 38 334 158 338 168 2 4 8 7 13 7 17 0 283 176
374 247 57 45 115 93 140 115 17 14 41 36 55 48 45 38 154 146 210 207 30 33
76 83 103 112 26 28 47 55 47 59 0 4 15 23 33 43 38 42 54 64 139 190 94 139
134 207 212 363 79 157 91 183 136 306 18 47 35 94 40 105 24 59 103 356 115
431 8 47 15 88 19 110 2 11 7 45 10 75 3 30 8 65 11 78 24 122 24 588 0 751
-5 37 -14 100 -20 145 -7 50 -8 59 -34 177 -71 330 -193 650 -351 923 -22 39
-46 81 -53 95 -6 14 -14 27 -17 30 -3 3 -29 39 -57 81 -185 279 -452 567 -713
769 -25 19 -47 37 -50 40 -8 9 -242 166 -280 188 -19 11 -66 37 -105 59 -258
147 -682 304 -940 347 -92 15 -163 27 -185 32 -14 3 -51 7 -83 9 -32 3 -63 7
-68 11 -11 6 -504 16 -510 9z"/>
</g>
</svg>
